<svg xmlns="http://www.w3.org/2000/svg"  viewBox="0 0 825.37 247.79"><defs><style>.cls-1{fill:#152c18;fill-rule:evenodd;}</style></defs><g id="Layer_2" data-name="Layer 2"><g id="MasterLayer_1" data-name="MasterLayer 1"><path class="cls-1" d="M263.43.94c-.88.9-2.23,3.44-6.91,13-5.6,11.39-6.4,13-7.43,14.83-1.93,3.56-2,3.2-2.08-9.75,0-12.66-.18-13.81-1.94-15.12a4.34,4.34,0,0,0-6.73,1.72c-.51,1.4-.55,3.48-.33,18.48.26,16.18.22,16.92-.4,16.71-3.55-1.18-8.52-1.68-11.41-1.06-6.14,1.23-9.66,5.12-15,16.59-1.25,2.71-3.18,6.84-4.32,9.22s-2.12,4.46-2.26,4.63-1.76-2.3-3.59-5.53c-6.73-11.92-12-17.21-20.19-20.08-2.81-1-4.06-1-15-.61-2.74.08-2.63.33-3.29-5.65a45.75,45.75,0,0,0-4.61-15c-3.22-6.06-10-12.86-14.74-14.79a14.7,14.7,0,0,0-9.47-.12c-3.92,1.47-7.39,5.41-8.85,10-.7,2.17-.81,3.16-.66,6.56.22,5.36,1,7.13,5.27,11.43a22.26,22.26,0,0,1,3.69,4.55c.51,1.43.66,3.76.22,3.85l-6,.16c-11.93.25-18.58,3-25,10.24l-2.37,2.71-3.26.36c-1.79.21-5,.58-7.09.78-30,3.2-52,5.57-59.62,6.39-5.12.54-13.67,1.48-19,2S.84,68.46.14,68.58c-1.24.16,5.67,0,16.1-.37,5.52-.2,14-.49,24-.82,3.62-.12,8.89-.33,11.7-.41s10.39-.41,16.83-.61,15.21-.49,19.49-.66L96,65.43l-1.49,3.64c-.81,2-1.54,3.69-1.58,3.73s-10.93,1.27-35,3.81c-2.31.25-5.6.61-7.32.82s-6.87.78-11.52,1.23c-12.61,1.27-12.91,1.43-3.29,1.8,4.65.17,9.47.37,10.79.45s5.27.29,8.78.41c7.13.25,13.53.53,19.57.82,2.23.12,6.51.33,9.5.45s5.53.29,5.53.33-.33,1.52-.81,3.32a32.39,32.39,0,0,0-1,5.73c0,1.36-.21,2.46-.43,2.5-.7,0-6.19.62-9.7,1-1.9.24-7.82.86-13.16,1.43L49.33,98.53c-3.21.37-11,1.19-17.37,1.84-14.08,1.52-14.63,1.6-8.41,1.39l11.7-.36c3.73-.13,9.33-.29,12.44-.41s10.93-.37,17.37-.62,14.3-.49,17.48-.61l5.74-.21v2.67c0,1.84-.14,2.66-.43,2.66s-4.69.45-9.81,1-12.94,1.4-17.37,1.85-8.52.9-9.14,1-3.55.41-6.58.74c-4.69.45-5.23.57-3.66.82,1,.12,4.2.28,7.13.28s8.92.21,13.35.41,12.43.54,17.81.66l9.76.28.22,1.73c.77,5.2,4.94,16.75,8,22.08a17.39,17.39,0,0,1,1.24,2.33s-3.62.29-7.94.58-11.63.82-16.23,1.1c-5.49.37-8.42.7-8.53,1S69.56,156,74,174s8,32.94,8,33.1a32.78,32.78,0,0,0,6,0c3.25-.12,8.08-.24,10.75-.24h4.83l1.83-4c5.26-11.34,13.78-19.5,23.73-22.69,4.14-1.35,11.56-1.31,15.44,0,9,3.11,15.72,10.4,19.42,20.89l1.39,3.94,5.41-.09c23.37-.45,31.56-.73,31.93-1.23a9.34,9.34,0,0,0,.73-2,56.63,56.63,0,0,1,5.08-11.23c5.3-8.76,12-14.5,20.15-17.45a28.18,28.18,0,0,1,14.49-.82c11.22,2.75,20,13.15,23,27.2l.66,3,8.52-.16c4.68-.08,8.59-.25,8.7-.37.26-.28,13.9-77,13.72-77.14a34.1,34.1,0,0,0-4.35.16c-2.31.21-6.66.49-9.66.66l-5.41.29.25-1.4a36.59,36.59,0,0,0-.32-10.9,27.21,27.21,0,0,0-1.5-4.62c-1.32-2.91-1.21-3.73.95-6.4,4.31-5.36,8.08-14.58,7.24-17.94-.66-2.7-4.1-4.88-6.18-3.93-1.36.61-2.05,1.84-3,5.24-1,3.69-3.11,8.07-4.47,9.34-1.53,1.44-3.25,1.19-7.38-1a19.55,19.55,0,0,0-9.59-2.83l-3.32-.29,3.62-6.35c5.37-9.34,6.21-11.71,6.21-17.12s-1.75-10.28-4.42-12.29c-3.44-2.54-3.77-3.81-1.54-5.7.73-.65,4.65-3.56,8.67-6.43,16.17-11.63,15.91-11.39,15.91-14.17a10.71,10.71,0,0,0-.22-2.26c-.4-1.1-2.3-1.92-4.61-1.92-1.9,0-2.49.2-5.16,2s-7.71,5.28-10.13,7.12c-2.59,2-2.63,1.93-1.35-1.51.7-1.76,2.93-6.52,5-10.57,6.51-12.78,8-16.88,7-19A6.67,6.67,0,0,0,265.55,0,2.89,2.89,0,0,0,263.43.94ZM141.5,18.6c6.4,3.36,12.72,15.12,12.76,23.68,0,4.34-.14,4.51-5,4.75-5.41.25-6.1-.33-6.83-5.94S139.71,32,136,29.29a9.73,9.73,0,0,1-2.57-2.7c-1.64-3.65,1.29-9,5-9A8.52,8.52,0,0,1,141.5,18.6Zm90.33,31a82.58,82.58,0,0,1,8.41,4.8C248.4,59.57,251,62,251.73,65.3s.11,5.49-3.7,12.21c-1.83,3.2-4.64,8.24-6.25,11.19-3.15,5.57-3.66,6.31-4.75,6.35a37.59,37.59,0,0,1-6.22-3.57c-4.72-3-5.82-3.56-7.28-3.56a2.93,2.93,0,0,0-2.85,1.19c-1.58,1.68-2.09,3.76-1.32,5.44.7,1.48,2.27,2.75,7.53,6,4.54,2.82,5.12,3.32,5.12,4.42s-2,4.51-3.58,6.06c-3.44,3.4-14.81,7.54-18.51,6.76-2-.41-2.3-1.47-1.57-5.65a68,68,0,0,0,.92-18c-.26-2.78-.48-6.43-.48-8.11,0-3,0-3.15,2.34-7.7,1.36-2.7,2.56-4.59,2.89-4.59a15.91,15.91,0,0,1,3.33,1.81c4.28,2.74,6.51,3.93,7.42,3.93,2,0,4.32-2.91,4.32-5.49,0-1.56-1.72-3.48-5.16-5.74-4.75-3.15-5.45-3.81-5.45-5.12,0-2.5,3.73-8.85,6.88-11.76a9.64,9.64,0,0,1,4.46-2.21A11.08,11.08,0,0,1,231.83,49.61Zm-52.7,4.92c4.21,1.43,8.3,5.61,12.8,13a59.74,59.74,0,0,1,8.12,23.1,76.58,76.58,0,0,1-.58,20.57c-.81,4.67-1.61,6-3.52,6-1.53,0-10.31-3-12-4.1-2.3-1.51-2.45-2.37-2.41-13.56,0-5.61-.15-11.26-.4-12.86C179.64,75.83,176,67.11,169,57.85a23,23,0,0,1-2.42-3.57,18.66,18.66,0,0,1,2.49-.57A21.72,21.72,0,0,1,179.13,54.53Zm-50.8,0a14.93,14.93,0,0,1,1.94.61c.33.09-.22,1.07-1.57,2.75a71.9,71.9,0,0,0-7.39,11.88c-4.28,9.46-6.11,23.06-4.75,35.11.65,5.61.47,7.54-.77,10.08-3.51,7.13-4.46,10-5.49,17l-.66,4.26-2.37-3.36c-8.93-12.62-12-29.37-8.6-46.34,1.46-7.37,5.19-16.71,8.63-21.71a35.54,35.54,0,0,1,7.1-7.37C118.57,54.65,124.49,53.38,128.33,54.53Zm15.4,40a10.17,10.17,0,0,1-3.59,1.19,29,29,0,0,0-10.6,4.51,9.75,9.75,0,0,1-3.48,1.68c-.91-.21-1.13-1.56-1.17-7a46.91,46.91,0,0,1,7-25.07c2.34-4.1,7.17-9.42,10-11.14l2.2-1.31.11,18.31C144.24,91.11,144.17,94.06,143.73,94.55ZM157.22,59.9A40.4,40.4,0,0,1,169.7,77.55a48.75,48.75,0,0,1,3,16.92c.22,6.48,0,8.36-1,8.36a19.61,19.61,0,0,1-3.14-1.88,39.29,39.29,0,0,0-11.19-5.17,12.16,12.16,0,0,1-3.44-1.31c-.59-.65-.84-37.11-.26-37.11A21.49,21.49,0,0,1,157.22,59.9Zm100.21,42.52a16.26,16.26,0,0,1,10.9,9.75c1.1,2.58,1.17,3,1.17,7.46a47,47,0,0,1-.25,5.81c-.33,1.19-.7,1.27-8.42,1.81l-3.91.24-1-2.21c-2.12-4.75-6.76-10.77-10.42-13.52s-4.17-4.42-2.12-7.09C245.62,101.85,251.91,100.82,257.43,102.42Zm-99.73,3.89c3.62,1.35,6,2.87,10.68,6.93,8.56,7.37,16.46,11.71,25.42,14,4.06,1.06,14.15,1.27,19,.41,7.17-1.23,14.81-4.06,19.56-7.17,3.66-2.38,4.9-2.75,6.33-2,1.61.86,5.41,4.79,7,7.25a16.22,16.22,0,0,1,1.32,2.21,24.05,24.05,0,0,1-4.28.45l-6.51.45c-1.21.13-9.18.66-17.74,1.23s-18.25,1.19-21.57,1.44l-33.29,2.25c-5.12.33-10.46.7-11.88.82s-4.21.29-6.22.41-4.79.33-6.22.41-5.45.37-9,.61-7.49.5-8.85.66l-2.48.2v-1.8c0-2.91,1.35-7.95,3.32-12.49,3.59-8.28,9.73-13.89,18-16.43,3.91-1.19,4.06-1.23,9.4-1.11C154,105.17,155.07,105.33,157.7,106.31Z"/><path class="cls-1" d="M226.73,178.1c-9.84,3-18,12.86-21,25.52-.84,3.4-1,4.79-1,9.71a40.87,40.87,0,0,0,.63,8.6,35.74,35.74,0,0,0,5.92,12.83c14.26,17.57,39.06,5.57,43.56-21.1a49,49,0,0,0-.4-15.69c-2.34-10-8.23-17.17-16.24-19.83A28.3,28.3,0,0,0,226.73,178.1Z"/><path class="cls-1" d="M131.3,186c-14.92,4.8-24.34,25.23-19.77,42.89a25.73,25.73,0,0,0,6.24,12c4.29,4.8,8.61,6.83,14.47,6.83,9.73,0,18.94-7.5,23.71-19.29,3.31-8.21,3.7-19.49.87-27.31s-8.26-13.39-14.68-15.27A23.08,23.08,0,0,0,131.3,186Z"/><path class="cls-1" d="M508.32,101.25c-6.88,1.23-12.2,4.35-17.58,10.31-6.71,7.46-8.43,14.65-5.26,21.67,1,2.34,2.79,4.62,6,7.85,4.19,4.29,4.56,4.79,4.56,6.85a4.92,4.92,0,0,1-1.34,3.68c-4.51,5-13,3.73-16.34-2.51-1-1.72-1.5-2.17-2.68-2.17-2.69,0-4.89,3.57-4.89,8,0,9.14,7.52,14.93,18.27,14.1,14.29-1.17,27.13-12,27.83-23.51.38-5.74-2.09-9.19-9.08-13.09-5.91-3.23-8-5.91-8-10,0-4.79,3.43-9.53,8.32-11.48,2.31-.89,2.69-.89,4-.16,2.2,1.28,2.1,3.06-.48,5.57a12.29,12.29,0,0,1-3.44,2.5c-2.64.67-2.21,5.41.59,7,1.88,1.06,7.41.89,10.05-.28,4.89-2.23,10-9.25,10-13.71a11.25,11.25,0,0,0-3.87-8C521.59,101.14,514.87,100.14,508.32,101.25Z"/><path class="cls-1" d="M648.81,75.43c-7.61,2.51-9.47,4.62-25.42,28.4-4.67,6.89-10.09,14.9-12.11,17.7l-3.61,5.2-.17-3.44c-.11-1.87.23-8.54.73-14.79.73-10,1.07-19.22.9-25.59a5.38,5.38,0,0,0-1.69-3.68c-1.41-1.46-2.08-1.7-4.73-1.7A24.4,24.4,0,0,0,589.8,81.8a10.93,10.93,0,0,0-3.66,5.38c-2.93,7.59-15.5,47.38-18.43,58.13-3.72,13.85-4,15.31-3.16,16.95,1.64,3.15,9.58,4.61,13.53,2.45,2.2-1.22,2.2-1.22,6.14-15.89,2-7.42,6.15-21.09,6.48-21.44.06-.12.06,3.56-.05,8.18-.17,6.07,0,8.7.5,9.75,2,4,10.38,5.09,15.34,2.11,2.81-1.7,7.66-7.42,15.49-18.35,2.54-3.56,4.8-6.54,4.85-6.54a4.69,4.69,0,0,1-.34,1.87c-2.65,9.34-7.83,31.9-7.72,33.36.45,4.73,9.64,6.66,14.6,3.15,1.69-1.22,1.92-1.92,4.73-13.55a572.81,572.81,0,0,1,18.83-61.12c3.15-8.71,3.38-10.11,1.8-11S651.57,74.5,648.81,75.43Z"/><path class="cls-1" d="M560.17,77.46c-5.16,1.45-9.35,4.35-10.26,7.07-.27.73-1.72,5-3.33,9.42l-2.91,8.19-3.33.22c-2.68.17-3.71.5-4.83,1.56-2.48,2.4-4.52,6.19-4.52,8.41,0,2.45.54,2.73,4.78,2.06a8.55,8.55,0,0,1,3.12-.22c.16.11-.75,3.23-2,6.85-3.44,10.14-6.77,22.18-7.79,28.14-2.26,13,.38,18.05,9.14,17.54,5.64-.33,10-2.78,15.9-8.74,5.48-5.68,8.06-10.42,8.22-15.15.06-2.85,0-3-1.39-3.12-1.67-.23-2.74.83-5.48,5.18-2,3.12-5.92,6.57-7.26,6.29-.7-.16-.86-.94-.75-4.34,0-4.85,2.31-13.43,6.72-25.68,2.25-6.3,3.06-8,4.08-8.36a24.66,24.66,0,0,1,5.8-.5c3.33,0,4.95-.23,5.91-.89,1.56-1.12,3.71-4.79,4.2-7.25.59-2.67-.38-3.12-6.61-2.89-3.5.11-5.43-.06-5.43-.39s1.72-5.07,3.81-10.53,3.71-10.47,3.6-11.14C569.25,76.74,565.33,76,560.17,77.46Z"/><path class="cls-1" d="M801.62,89.24c-10.43,2.46-20.35,9.18-27.45,18.47-15.33,20.1-17.19,44.23-3.89,50.13,8.12,3.62,20.57,1.34,29.65-5.37,4.22-3.1,9.52-8.89,11.1-12.1s2.08-8.06,1-8.76c-1.63-1.06-2.93-.41-7.21,3.79a42,42,0,0,1-7.72,6c-4.12,2.11-9.36,2.57-12,1.11-3.38-1.75-4.84-7.48-3.38-13.32l.56-2.45h8.85c10.15,0,14-.88,20.35-4.79C823.26,114.66,828.9,101,823,93.74c-2.53-3.15-6.87-4.85-12.79-5.08A38.29,38.29,0,0,0,801.62,89.24Zm6.14,11.51c2.42,1.35,2.71,3.39,1,6.9-2.64,5.32-11.78,10.52-20.34,11.51-4.06.47-4.23.06-1.64-4.21s9.53-10.92,13.53-13C804.1,100,805.79,99.7,807.76,100.75Z"/><path class="cls-1" d="M753,90.3A24.35,24.35,0,0,0,744.7,95c-3.7,3.18-3.81,3.18-3,.62,1-3,.38-4.29-2.2-4.79-3.82-.73-11.93,1.89-15.1,4.9a12.74,12.74,0,0,0-2.26,4c-1.34,3.4-6,19.78-11.34,39.33-3.76,13.87-3.81,14.2-3,16,1.13,2.4,3.6,3.46,7.95,3.46s6.45-1.23,7.64-4.57c.48-1.28,2.84-9.42,5.32-18.05,4.29-15,4.56-15.77,7.63-20.61,4.19-6.52,9.29-11.76,13.81-14,3.86-2,5.85-2.23,7.09-.89,1.4,1.45,1,3.06-1.45,5.51a12.27,12.27,0,0,1-5.7,3.29c-3.71,1.06-4.35,2-4.35,6.13a4.8,4.8,0,0,0,1.45,3.95c1.4,1.4,1.72,1.51,5.53,1.28,6.29-.27,10-2.73,14-9,3.65-5.79,4.89-12.59,3-16.37a11.71,11.71,0,0,0-6.18-5.13A22.56,22.56,0,0,0,753,90.3Z"/><path class="cls-1" d="M692.84,92c-12.63,1.84-24.34,10.14-32.4,23-10.27,16.26-11.83,33.48-3.66,40.66,7.47,6.69,23.43,4.46,33.86-4.73,6.44-5.63,9.67-10.81,9.72-15.43s-2.2-4.18-7.63,1.33c-6.23,6.36-13.81,9-18.48,6.36-3.17-1.73-4.63-7.19-3.34-12.37.65-2.45.86-2.79,2.05-2.62.75.06,4.13.17,7.52.22,10.75.17,18.27-2.84,25.31-10.14,4.46-4.62,6.23-8.19,6.77-13.7C713.47,95.84,704.77,90.32,692.84,92Zm2.9,11.42a4.22,4.22,0,0,1,2.2,2c.49,1.68-1.34,5.52-3.81,8s-8.28,5.62-12.58,6.79c-3.27.89-7.52,1.12-7.52.34a21.49,21.49,0,0,1,2.15-3.85c3.82-6,11.39-12.42,15.74-13.48,1-.28,1.78-.44,1.89-.5A8.86,8.86,0,0,1,695.74,103.41Z"/><path class="cls-1" d="M424.91,85.4c-2.81.58-6.5.74-16.89.58-22.84-.37-25.25-.26-28.27,1.12-2.82,1.22-6,4.35-6.81,6.69-.77,2-.61,4.83.31,5.73a4.76,4.76,0,0,0,3.22.85h2.46l-5.53,17.09c-5.48,16.94-8.81,28.24-11.67,39.5-1.64,6.68-1.49,7.64,1.53,9.29,3.38,1.75,10.7,1,12-1.23.2-.26,1.22-4.14,2.3-8.54S381,144,382.67,138.54l3.07-9.93,6-.37c3.33-.22,9.37-.64,13.42-1,6.6-.64,7.47-.85,8.34-1.91,2-2.55,2.36-7.91.62-8.92a19.11,19.11,0,0,0-5.12,0c-6.25.64-19.15,1.27-19.1,1,0-.16,1.54-4.36,3.43-9.29l3.43-9,12.8-.26c14.7-.32,15.67-.59,19.87-5.26,2.82-3.08,3.79-6,2.66-7.86C431.16,84.23,430.19,84.23,424.91,85.4Z"/><path class="cls-1" d="M473.49,99.75a26.59,26.59,0,0,0-9.13,4l-1.93,1.61L461,104c-4-3.56-11-3.06-18.8,1.34s-16.93,15.27-22.84,27.3c-4.78,9.75-6.07,13.87-6.45,20.33-.27,6.07.43,8.92,2.9,11.76,3.76,4.12,11.5,5.07,17.57,2.11a42.61,42.61,0,0,0,11.93-9.13l2.05-2.34-.38,2c-1,4.57-1,5.9-.11,7.35,1.35,2.06,3.49,2.79,8.12,2.51,6.18-.28,5.91.11,11.87-20.56,5.8-20.11,7.95-26.91,11.61-36.93,1.45-4,2.47-7.64,2.31-8.19a3.81,3.81,0,0,0-2.31-1.62A8.67,8.67,0,0,0,473.49,99.75Zm-22.87,16.54c2.61,3-.87,15-7,24.31-5.22,7.91-11.72,12-15.15,9.35-.82-.64-1-1.38-1-4.41,0-7.54,4.87-18,11.73-25.53C443.76,115,448.21,113.53,450.62,116.29Z"/></g></g></svg>